<svg width="12" height="12" viewBox="0 0 12 12" fill="none" xmlns="http://www.w3.org/2000/svg">
<rect width="12" height="12" rx="6" fill="#39332C"/>
<path d="M7.47826 4C7.47826 3.18358 6.81642 2.52174 6 2.52174C5.18358 2.52174 4.52174 3.18358 4.52174 4C4.52174 4.81642 5.18358 5.47826 6 5.47826C6.81642 5.47826 7.47826 4.81642 7.47826 4ZM8 4C8 5.10457 7.10457 6 6 6C4.89543 6 4 5.10457 4 4C4 2.89543 4.89543 2 6 2C7.10457 2 8 2.89543 8 4Z" fill="#B1A899"/>
<path d="M8.51819 9.73529C8.51819 8.56383 7.43807 7.52941 6 7.52941C4.56195 7.52944 3.48181 8.56384 3.48181 9.73529C3.48181 9.88149 3.37395 10 3.2409 10C3.10786 10 3 9.88149 3 9.73529C3 8.17501 4.39307 7.00002 6 7C7.60695 7 9 8.17499 9 9.73529C9 9.88149 8.89214 10 8.7591 10C8.62609 9.99994 8.51819 9.88145 8.51819 9.73529Z" fill="#B1A899"/>
</svg>
